<?xml version="1.0" encoding="UTF-8" standalone="no"?>
<!DOCTYPE svg PUBLIC "-//W3C//DTD SVG 1.1//EN"
 "http://www.w3.org/Graphics/SVG/1.1/DTD/svg11.dtd">
<!-- Generated by graphviz version 2.38.0 (20140413.2041)
 -->
<!-- Title: %3 Pages: 1 -->
<svg width="1008pt" height="749pt"
 viewBox="0.00 0.00 1008.00 748.68" xmlns="http://www.w3.org/2000/svg" xmlns:xlink="http://www.w3.org/1999/xlink">
<g id="graph0" class="graph" transform="scale(0.421833 0.421833) rotate(0) translate(4 1770.82)">
<title>%3</title>
<polygon fill="white" stroke="none" points="-4,4 -4,-1770.82 2385.57,-1770.82 2385.57,4 -4,4"/>
<!-- github.com/go&#45;modules&#45;by&#45;example&#45;staging/\nlistmodwhygraph -->
<g id="node1" class="node"><title>github.com/go&#45;modules&#45;by&#45;example&#45;staging/\nlistmodwhygraph</title>
<polygon fill="#e94762" stroke="none" points="1420.63,-584.925 860.635,-584.925 860.635,-524.925 1420.63,-524.925 1420.63,-584.925"/>
<text text-anchor="middle" x="1140.63" y="-561.725" font-family="Helvetica,sans-Serif" font-size="24.00">github.com/go&#45;modules&#45;by&#45;example&#45;staging/</text>
<text text-anchor="middle" x="1140.63" y="-535.725" font-family="Helvetica,sans-Serif" font-size="24.00">listmodwhygraph</text>
</g>
<!-- github.com/go&#45;modules&#45;by&#45;example&#45;staging/\nincomplete -->
<g id="node2" class="node"><title>github.com/go&#45;modules&#45;by&#45;example&#45;staging/\nincomplete</title>
<text text-anchor="middle" x="1254.09" y="-237.522" font-family="Helvetica,sans-Serif" font-size="24.00">github.com/go&#45;modules&#45;by&#45;example&#45;staging/</text>
<text text-anchor="middle" x="1254.09" y="-211.522" font-family="Helvetica,sans-Serif" font-size="24.00">incomplete</text>
</g>
<!-- github.com/go&#45;modules&#45;by&#45;example&#45;staging/\nlistmodwhygraph&#45;&gt;github.com/go&#45;modules&#45;by&#45;example&#45;staging/\nincomplete -->
<g id="edge1" class="edge"><title>github.com/go&#45;modules&#45;by&#45;example&#45;staging/\nlistmodwhygraph&#45;&gt;github.com/go&#45;modules&#45;by&#45;example&#45;staging/\nincomplete</title>
<path fill="none" stroke="black" d="M1151.21,-524.716C1171.77,-465.955 1217.15,-336.285 1240.15,-270.569"/>
<polygon fill="black" stroke="black" points="1243.51,-271.568 1243.51,-260.973 1236.9,-269.255 1243.51,-271.568"/>
</g>
<!-- github.com/kr/\npretty -->
<g id="node3" class="node"><title>github.com/kr/\npretty</title>
<text text-anchor="middle" x="1602.97" y="-417.577" font-family="Helvetica,sans-Serif" font-size="24.00">github.com/kr/</text>
<text text-anchor="middle" x="1602.97" y="-391.577" font-family="Helvetica,sans-Serif" font-size="24.00">pretty</text>
</g>
<!-- github.com/go&#45;modules&#45;by&#45;example&#45;staging/\nlistmodwhygraph&#45;&gt;github.com/kr/\npretty -->
<g id="edge2" class="edge"><title>github.com/go&#45;modules&#45;by&#45;example&#45;staging/\nlistmodwhygraph&#45;&gt;github.com/kr/\npretty</title>
<path fill="none" stroke="black" d="M1236.99,-524.882C1312.88,-501.224 1418.55,-468.277 1496.85,-443.865"/>
<polygon fill="black" stroke="black" points="1498.23,-447.099 1506.74,-440.781 1496.15,-440.416 1498.23,-447.099"/>
</g>
<!-- github.com/sirupsen/\nlogrus -->
<g id="node4" class="node"><title>github.com/sirupsen/\nlogrus</title>
<text text-anchor="middle" x="557.389" y="-451.595" font-family="Helvetica,sans-Serif" font-size="24.00">github.com/sirupsen/</text>
<text text-anchor="middle" x="557.389" y="-425.595" font-family="Helvetica,sans-Serif" font-size="24.00">logrus</text>
</g>
<!-- github.com/go&#45;modules&#45;by&#45;example&#45;staging/\nlistmodwhygraph&#45;&gt;github.com/sirupsen/\nlogrus -->
<g id="edge3" class="edge"><title>github.com/go&#45;modules&#45;by&#45;example&#45;staging/\nlistmodwhygraph&#45;&gt;github.com/sirupsen/\nlogrus</title>
<path fill="none" stroke="black" d="M981.646,-524.904C894.691,-508.485 787.745,-488.292 702.983,-472.287"/>
<polygon fill="black" stroke="black" points="703.497,-468.822 693.022,-470.406 702.199,-475.7 703.497,-468.822"/>
</g>
<!-- golang.org/x/tools -->
<g id="node5" class="node"><title>golang.org/x/tools</title>
<text text-anchor="middle" x="1271.33" y="-1016.35" font-family="Helvetica,sans-Serif" font-size="24.00">golang.org/x/tools</text>
</g>
<!-- github.com/go&#45;modules&#45;by&#45;example&#45;staging/\nlistmodwhygraph&#45;&gt;golang.org/x/tools -->
<g id="edge4" class="edge"><title>github.com/go&#45;modules&#45;by&#45;example&#45;staging/\nlistmodwhygraph&#45;&gt;golang.org/x/tools</title>
<path fill="none" stroke="black" d="M1149.11,-585.247C1172.98,-670.646 1240.51,-912.298 1263.53,-994.656"/>
<polygon fill="black" stroke="black" points="1260.17,-995.636 1266.23,-1004.32 1266.91,-993.751 1260.17,-995.636"/>
</g>
<!-- github.com/kr/\ntext -->
<g id="node6" class="node"><title>github.com/kr/\ntext</title>
<text text-anchor="middle" x="1977.22" y="-260.078" font-family="Helvetica,sans-Serif" font-size="24.00">github.com/kr/</text>
<text text-anchor="middle" x="1977.22" y="-234.078" font-family="Helvetica,sans-Serif" font-size="24.00">text</text>
</g>
<!-- github.com/kr/\npretty&#45;&gt;github.com/kr/\ntext -->
<g id="edge5" class="edge"><title>github.com/kr/\npretty&#45;&gt;github.com/kr/\ntext</title>
<path fill="none" stroke="black" d="M1674.69,-380.596C1738.01,-353.949 1830.25,-315.13 1896.21,-287.37"/>
<polygon fill="black" stroke="black" points="1897.89,-290.462 1905.75,-283.357 1895.17,-284.01 1897.89,-290.462"/>
</g>
<!-- github.com/davecgh/\ngo&#45;spew -->
<g id="node8" class="node"><title>github.com/davecgh/\ngo&#45;spew</title>
<text text-anchor="middle" x="136" y="-464.019" font-family="Helvetica,sans-Serif" font-size="24.00">github.com/davecgh/</text>
<text text-anchor="middle" x="136" y="-438.019" font-family="Helvetica,sans-Serif" font-size="24.00">go&#45;spew</text>
</g>
<!-- github.com/sirupsen/\nlogrus&#45;&gt;github.com/davecgh/\ngo&#45;spew -->
<g id="edge7" class="edge"><title>github.com/sirupsen/\nlogrus&#45;&gt;github.com/davecgh/\ngo&#45;spew</title>
<path fill="none" stroke="black" d="M421.739,-448.795C377.227,-450.107 327.574,-451.571 282.308,-452.906"/>
<polygon fill="black" stroke="black" points="282.01,-449.413 272.117,-453.206 282.216,-456.41 282.01,-449.413"/>
</g>
<!-- github.com/konsorten/\ngo&#45;windows&#45;terminal&#45;sequences -->
<g id="node9" class="node"><title>github.com/konsorten/\ngo&#45;windows&#45;terminal&#45;sequences</title>
<text text-anchor="middle" x="762.543" y="-180.073" font-family="Helvetica,sans-Serif" font-size="24.00">github.com/konsorten/</text>
<text text-anchor="middle" x="762.543" y="-154.073" font-family="Helvetica,sans-Serif" font-size="24.00">go&#45;windows&#45;terminal&#45;sequences</text>
</g>
<!-- github.com/sirupsen/\nlogrus&#45;&gt;github.com/konsorten/\ngo&#45;windows&#45;terminal&#45;sequences -->
<g id="edge8" class="edge"><title>github.com/sirupsen/\nlogrus&#45;&gt;github.com/konsorten/\ngo&#45;windows&#45;terminal&#45;sequences</title>
<path fill="none" stroke="black" d="M580.128,-414.7C617.637,-365.056 692.421,-266.081 733.631,-211.539"/>
<polygon fill="black" stroke="black" points="736.467,-213.591 739.702,-203.503 730.882,-209.372 736.467,-213.591"/>
</g>
<!-- github.com/pmezard/\ngo&#45;difflib -->
<g id="node10" class="node"><title>github.com/pmezard/\ngo&#45;difflib</title>
<text text-anchor="middle" x="491.023" y="-36.8" font-family="Helvetica,sans-Serif" font-size="24.00">github.com/pmezard/</text>
<text text-anchor="middle" x="491.023" y="-10.8" font-family="Helvetica,sans-Serif" font-size="24.00">go&#45;difflib</text>
</g>
<!-- github.com/sirupsen/\nlogrus&#45;&gt;github.com/pmezard/\ngo&#45;difflib -->
<g id="edge9" class="edge"><title>github.com/sirupsen/\nlogrus&#45;&gt;github.com/pmezard/\ngo&#45;difflib</title>
<path fill="none" stroke="black" d="M552.562,-414.63C540.806,-341.151 510.681,-152.867 497.435,-70.0785"/>
<polygon fill="black" stroke="black" points="500.867,-69.3735 495.831,-60.0521 493.955,-70.4795 500.867,-69.3735"/>
</g>
<!-- github.com/stretchr/\nobjx -->
<g id="node11" class="node"><title>github.com/stretchr/\nobjx</title>
<text text-anchor="middle" x="235.534" y="-188.647" font-family="Helvetica,sans-Serif" font-size="24.00">github.com/stretchr/</text>
<text text-anchor="middle" x="235.534" y="-162.647" font-family="Helvetica,sans-Serif" font-size="24.00">objx</text>
</g>
<!-- github.com/sirupsen/\nlogrus&#45;&gt;github.com/stretchr/\nobjx -->
<g id="edge10" class="edge"><title>github.com/sirupsen/\nlogrus&#45;&gt;github.com/stretchr/\nobjx</title>
<path fill="none" stroke="black" d="M520.468,-414.632C461.088,-366.12 344.554,-270.914 280.448,-218.541"/>
<polygon fill="black" stroke="black" points="282.477,-215.679 272.518,-212.063 278.048,-221.1 282.477,-215.679"/>
</g>
<!-- github.com/stretchr/\ntestify -->
<g id="node12" class="node"><title>github.com/stretchr/\ntestify</title>
<text text-anchor="middle" x="287.083" y="-718.945" font-family="Helvetica,sans-Serif" font-size="24.00">github.com/stretchr/</text>
<text text-anchor="middle" x="287.083" y="-692.945" font-family="Helvetica,sans-Serif" font-size="24.00">testify</text>
</g>
<!-- github.com/sirupsen/\nlogrus&#45;&gt;github.com/stretchr/\ntestify -->
<g id="edge11" class="edge"><title>github.com/sirupsen/\nlogrus&#45;&gt;github.com/stretchr/\ntestify</title>
<path fill="none" stroke="black" d="M526.907,-474.944C477.193,-524.114 378.794,-621.437 324.772,-674.868"/>
<polygon fill="black" stroke="black" points="322.103,-672.585 317.454,-682.106 327.025,-677.562 322.103,-672.585"/>
</g>
<!-- golang.org/x/sys -->
<g id="node13" class="node"><title>golang.org/x/sys</title>
<text text-anchor="middle" x="615.085" y="-877.105" font-family="Helvetica,sans-Serif" font-size="24.00">golang.org/x/sys</text>
</g>
<!-- github.com/sirupsen/\nlogrus&#45;&gt;golang.org/x/sys -->
<g id="edge12" class="edge"><title>github.com/sirupsen/\nlogrus&#45;&gt;golang.org/x/sys</title>
<path fill="none" stroke="black" d="M561.354,-474.936C571.98,-555.697 600.987,-776.154 611.346,-854.888"/>
<polygon fill="black" stroke="black" points="607.906,-855.57 612.68,-865.028 614.846,-854.656 607.906,-855.57"/>
</g>
<!-- golang.org/x/net -->
<g id="node15" class="node"><title>golang.org/x/net</title>
<text text-anchor="middle" x="1068.16" y="-1383.33" font-family="Helvetica,sans-Serif" font-size="24.00">golang.org/x/net</text>
</g>
<!-- golang.org/x/tools&#45;&gt;golang.org/x/net -->
<g id="edge16" class="edge"><title>golang.org/x/tools&#45;&gt;golang.org/x/net</title>
<path fill="none" stroke="black" d="M1261.25,-1040.75C1228.15,-1100.54 1122.6,-1291.19 1083.19,-1362.37"/>
<polygon fill="black" stroke="black" points="1080.07,-1360.77 1078.29,-1371.22 1086.2,-1364.16 1080.07,-1360.77"/>
</g>
<!-- golang.org/x/sync -->
<g id="node17" class="node"><title>golang.org/x/sync</title>
<text text-anchor="middle" x="1586.85" y="-1188.08" font-family="Helvetica,sans-Serif" font-size="24.00">golang.org/x/sync</text>
</g>
<!-- golang.org/x/tools&#45;&gt;golang.org/x/sync -->
<g id="edge17" class="edge"><title>golang.org/x/tools&#45;&gt;golang.org/x/sync</title>
<path fill="none" stroke="black" d="M1304.5,-1040.61C1362.25,-1072.04 1481.18,-1136.77 1544.7,-1171.34"/>
<polygon fill="black" stroke="black" points="1543.19,-1174.5 1553.65,-1176.21 1546.54,-1168.36 1543.19,-1174.5"/>
</g>
<!-- github.com/kr/\npty -->
<g id="node7" class="node"><title>github.com/kr/\npty</title>
<text text-anchor="middle" x="2285.07" y="-123.641" font-family="Helvetica,sans-Serif" font-size="24.00">github.com/kr/</text>
<text text-anchor="middle" x="2285.07" y="-97.641" font-family="Helvetica,sans-Serif" font-size="24.00">pty</text>
</g>
<!-- github.com/kr/\ntext&#45;&gt;github.com/kr/\npty -->
<g id="edge6" class="edge"><title>github.com/kr/\ntext&#45;&gt;github.com/kr/\npty</title>
<path fill="none" stroke="black" d="M2045.16,-223.167C2093.34,-201.817 2158.06,-173.134 2208.13,-150.94"/>
<polygon fill="black" stroke="black" points="2209.58,-154.126 2217.31,-146.875 2206.75,-147.727 2209.58,-154.126"/>
</g>
<!-- golang.org/x/crypto -->
<g id="node14" class="node"><title>golang.org/x/crypto</title>
<text text-anchor="middle" x="741.73" y="-1236.41" font-family="Helvetica,sans-Serif" font-size="24.00">golang.org/x/crypto</text>
</g>
<!-- golang.org/x/crypto&#45;&gt;golang.org/x/sys -->
<g id="edge13" class="edge"><title>golang.org/x/crypto&#45;&gt;golang.org/x/sys</title>
<path fill="none" stroke="black" d="M735.275,-1224.3C714.569,-1165.55 649.718,-981.562 624.889,-911.121"/>
<polygon fill="black" stroke="black" points="628.152,-909.848 621.527,-901.58 621.55,-912.175 628.152,-909.848"/>
</g>
<!-- golang.org/x/net&#45;&gt;golang.org/x/crypto -->
<g id="edge14" class="edge"><title>golang.org/x/net&#45;&gt;golang.org/x/crypto</title>
<path fill="none" stroke="black" d="M1028.13,-1371.51C968.336,-1344.6 855.803,-1293.95 791.026,-1264.8"/>
<polygon fill="black" stroke="black" points="792.383,-1261.57 781.828,-1260.66 789.51,-1267.95 792.383,-1261.57"/>
</g>
<!-- golang.org/x/text -->
<g id="node16" class="node"><title>golang.org/x/text</title>
<text text-anchor="middle" x="1099.36" y="-1742.62" font-family="Helvetica,sans-Serif" font-size="24.00">golang.org/x/text</text>
</g>
<!-- golang.org/x/net&#45;&gt;golang.org/x/text -->
<g id="edge15" class="edge"><title>golang.org/x/net&#45;&gt;golang.org/x/text</title>
<path fill="none" stroke="black" d="M1069.75,-1407.84C1074.84,-1466.46 1090.77,-1649.81 1096.91,-1720.57"/>
<polygon fill="black" stroke="black" points="1093.42,-1720.88 1097.78,-1730.54 1100.4,-1720.28 1093.42,-1720.88"/>
</g>
</g>
</svg>
